<?xml version="1.0" encoding="UTF-8"?>
<!DOCTYPE svg PUBLIC "-//W3C//DTD SVG 1.1//EN" "http://www.w3.org/Graphics/SVG/1.1/DTD/svg11.dtd">
<!-- Creator: CorelDRAW X6 -->
<svg xmlns="http://www.w3.org/2000/svg" xml:space="preserve" width="25.7778in" height="25.8056in" version="1.1" style="shape-rendering:geometricPrecision; text-rendering:geometricPrecision; image-rendering:optimizeQuality; fill-rule:evenodd; clip-rule:evenodd"
viewBox="0 0 25778 25806"
 xmlns:xlink="http://www.w3.org/1999/xlink">
 <defs>
  <style type="text/css">
   <![CDATA[
    .fil0 {fill:#FEFEFE;fill-rule:nonzero}
   ]]>
  </style>
 </defs>
 <g id="Layer_x0020_1">
  <metadata id="CorelCorpID_0Corel-Layer"/>
  <path class="fil0" d="M20444 16962c-32,-87 -70,-163 -111,-245 -5,-10 -25,-16 -38,-17 -18,-2 -40,-1 -58,-1 -47,-79 -54,-103 -158,-101 -161,3 -347,12 -514,16 -3,-20 -5,-42 -6,-62 -4,-178 -13,-356 -12,-534 4,-674 11,-1348 18,-2023 5,-465 8,-931 18,-1397 2,-106 -10,-201 -40,-304 -36,-120 -61,-243 -57,-371 3,-88 -1,-179 11,-265 14,-106 3,-188 -48,-281 -9,-16 -20,-33 -19,-50 4,-89 17,-177 18,-265 1,-43 1,-93 -24,-128 -68,-93 -146,-138 -260,-121 -98,15 -194,44 -282,88 -113,56 -163,144 -172,268 -12,155 -9,311 -12,467 -15,914 -37,1828 -38,2743 0,725 45,1449 28,2175 -1,28 -3,59 -2,87 -175,5 -338,13 -514,17 -538,12 -1066,31 -1609,33 -749,3 -1515,-4 -2265,-14 -224,-3 -414,-25 -628,36 -127,36 -240,64 -373,52 -89,-8 -183,-37 -261,11 -87,53 -156,48 -246,30 -51,-10 -81,-5 -112,28 -31,33 -59,71 -63,113 -15,177 7,318 97,476 32,57 86,78 161,79 259,5 494,13 764,18 725,11 1464,23 2195,20 483,-2 977,-24 1457,-38 418,-12 820,-26 1235,-38 62,-2 116,-1 178,-1 14,177 26,350 57,526 27,148 26,301 29,452 1,38 7,70 26,104 -3,173 10,343 36,514 -13,128 -8,250 16,376 0,1 0,3 0,4 1,25 1,47 11,71 5,12 15,21 24,31 9,10 18,18 33,24 59,32 148,72 200,103 57,35 87,40 137,14 63,-33 112,-81 170,-115 66,-39 74,-80 81,-152 3,-28 6,-38 34,-57 44,-30 73,-58 72,-120 -13,-542 -28,-1088 -39,-1631 -2,-68 -1,-132 -1,-199 45,2 89,-1 134,-8 93,7 179,-3 268,-28 55,-3 107,-7 162,-14 60,-8 114,-20 165,-55 3,0 7,0 10,0 36,-87 75,-175 109,-262 10,-26 17,-55 8,-79z"/>
  <path class="fil0" d="M9009 6846c-2,-22 -3,-35 -3,-39 -3,-17 -9,-48 -18,-93 -9,-45 -18,-93 -28,-144 -10,-51 -21,-99 -31,-144 -10,-44 -17,-75 -21,-92 -3,-4 -11,-16 -23,-39 -12,-22 -26,-45 -41,-69 -15,-24 -32,-45 -49,-64 -17,-19 -33,-28 -46,-28 -21,0 -50,3 -87,8 -38,5 -77,13 -118,23 -41,10 -81,21 -118,33 -38,12 -69,23 -93,33l-26 -20c-3,3 -14,8 -31,15 -17,7 -36,15 -57,23 -21,8 -39,19 -54,31 -15,12 -25,23 -28,33l-123 617 0 1990c0,8 0,17 -1,25 -63,163 -169,298 -356,347 -5,1 -10,3 -15,5 -50,3 -98,11 -142,24 -58,17 -120,26 -185,26 -96,0 -171,-9 -226,-26 -55,-17 -94,-75 -118,-175l0 -1691c0,-10 -2,-37 -5,-80 -3,-43 -6,-88 -8,-136 -2,-48 -4,-92 -8,-131 -3,-39 -5,-64 -5,-75l0 -46c0,-48 2,-101 5,-159 3,-58 5,-117 5,-175 0,-75 -5,-147 -15,-216 -10,-69 -34,-127 -72,-175 -51,-72 -105,-124 -162,-157 -57,-33 -128,-49 -213,-49 -45,0 -85,3 -121,8 -36,5 -71,13 -105,23 -34,10 -70,23 -108,39 -38,15 -82,35 -134,59 -17,7 -33,40 -46,100 -14,60 -27,128 -41,206 -14,77 -24,154 -31,231 -7,77 -10,134 -10,172l0 105c0,46 2,73 5,80l72 648 0 1193c0,72 9,165 28,280 19,115 58,237 118,368 60,130 147,259 262,386 115,127 268,238 460,334 38,3 69,7 93,10 24,3 48,7 72,10 24,3 45,5 62,5l51 0c14,-3 47,-9 100,-15 53,-7 111,-15 172,-23 62,-9 119,-16 172,-23 53,-7 87,-10 100,-10 192,-21 366,-62 522,-123 156,-62 290,-145 401,-249 111,-105 199,-233 262,-386 63,-152 98,-332 105,-537 -3,-51 -5,-141 -5,-270l0 -825c0,-130 2,-221 5,-273 0,-14 3,-49 8,-105 5,-57 11,-117 18,-180 7,-63 13,-123 18,-180 5,-56 8,-92 8,-105 0,-7 1,-23 3,-49 2,-26 3,-45 3,-59 0,-14 -1,-32 -3,-54z"/>
  <path class="fil0" d="M12877 8018c0,-3 0,-5 0,-8 0,-14 -1,-35 -3,-64 -2,-29 -3,-47 -3,-54l-129 -1429c0,-3 -5,-16 -15,-39 -10,-22 -22,-48 -36,-77 -14,-29 -27,-58 -41,-87 -14,-29 -24,-52 -31,-69 -7,-7 -21,-21 -41,-44 -21,-22 -39,-33 -57,-33 -10,0 -26,2 -46,8 -21,5 -52,13 -95,23 -43,10 -102,26 -177,46 -21,3 -40,17 -59,41 -19,24 -36,51 -51,82 -15,31 -28,62 -39,95 -10,33 -15,58 -15,75l0 1059c2,0 4,0 6,-1 -1,149 -3,298 -4,448 -2,37 -5,76 -9,116 -4,36 -6,69 -8,99 -19,79 -39,157 -60,235l-1420 -2327c0,-7 -15,-11 -44,-13 -29,-2 -52,-2 -69,-2 -75,0 -144,6 -206,18 -62,12 -127,37 -195,75 -41,55 -73,140 -95,255 -22,115 -38,238 -46,370 -9,132 -13,260 -13,383 0,123 -2,219 -5,288 -3,120 -13,244 -28,373 -15,129 -23,251 -23,368 0,7 -1,14 -3,21 -2,7 -3,15 -3,26 0,9 1,17 3,24 -1,5 -1,10 -2,15 -8,99 -15,198 -20,297 -1,8 -2,16 -2,23l1 0c-15,324 -13,650 6,974 6,104 14,208 24,312 10,105 13,213 101,276 110,12 213,68 320,100 110,11 222,-2 322,-47 48,-22 72,-75 72,-127l12 -37 77 -1840c185,278 338,503 458,676 29,42 56,81 82,119 99,189 207,373 323,552 3,18 8,36 17,53 5,10 10,20 16,30 83,106 155,219 221,336 70,90 149,187 246,249 1,2 2,5 3,7 10,4 18,11 24,20 7,3 15,9 21,13l3 1c6,-1 10,-3 14,-6 165,69 334,-1 439,-129 29,-17 61,-37 97,-60 41,-82 73,-188 95,-319 22,-130 40,-266 54,-409 14,-142 22,-282 26,-419 3,-137 5,-254 5,-350 0,-15 -1,-28 -4,-42 2,-58 5,-116 7,-174 5,-124 14,-249 2,-373z"/>
  <path class="fil0" d="M15542 8445c-21,132 -57,251 -108,357 -51,106 -122,199 -211,278 -89,79 -200,144 -334,195 -38,14 -69,27 -93,39 -24,12 -46,22 -67,31 -21,9 -43,15 -67,21 -24,5 -55,8 -93,8l1 1c-9,-1 -18,-1 -27,-1 -21,1 -40,4 -57,10 -4,-5 -8,-8 -14,-10 0,-10 2,-32 5,-64 3,-33 7,-66 10,-100 3,-34 6,-65 8,-93 2,-27 3,-43 3,-46 -3,-72 -6,-137 -8,-195 -2,-58 -3,-122 -5,-190 -2,-69 -3,-134 -5,-198 -2,-63 -3,-119 -5,-167 -2,-48 -3,-79 -3,-93 0,-3 1,-17 3,-41 2,-24 4,-50 8,-77 2,-18 4,-35 7,-51 -13,-109 -15,-218 -12,-327 -3,-34 -4,-70 -4,-105l0 -31c0,-3 3,-10 10,-21 2,-37 3,-74 4,-111 -6,-29 -11,-46 -14,-49l0 -31c0,-17 -9,-27 -26,-31l26 -26 0 -298 684 175c48,17 97,56 147,118 50,62 94,134 134,216 39,82 72,166 98,252 26,86 38,158 38,216 0,161 -10,308 -31,440zm997 -578c-7,-93 -29,-175 -67,-247l-411 -828c-14,-27 -38,-59 -72,-95 -34,-36 -73,-71 -116,-105 -43,-34 -87,-64 -134,-90 -46,-26 -87,-44 -121,-54l-853 -221c-17,4 -43,5 -77,5 -69,0 -142,-9 -221,-28 -79,-19 -153,-28 -221,-28 -38,0 -88,4 -152,10 -63,7 -125,20 -185,41 -60,21 -112,49 -157,85 -45,36 -67,81 -67,136 0,45 9,81 26,108 17,27 26,55 26,82 0,17 -3,33 -10,49 -7,15 -21,33 -41,54 3,4 9,11 15,23 7,12 10,21 10,28 0,4 -3,10 -10,21 -7,10 -12,17 -15,21l0 103c0,17 -1,51 -3,100 -2,50 -4,108 -8,175 -3,67 -7,138 -10,213 -3,76 -7,147 -10,213 -3,67 -6,125 -8,175 -2,50 -3,83 -3,100 -7,298 -13,611 -18,938 -3,202 -5,399 -7,592 -20,132 -29,266 -16,399 1,11 1,21 3,32 4,34 10,67 18,100 2,11 5,22 8,33 4,17 11,31 18,44 5,12 11,23 16,35 2,13 5,25 8,37 36,45 77,87 119,128 4,-1 7,-3 11,-5 45,34 96,60 149,81 0,3 0,6 0,9 6,0 12,-1 18,-2 27,9 54,17 82,24 125,29 256,35 383,36 129,0 258,-1 387,-12 247,-20 481,-82 691,-216 36,-23 70,-47 104,-72 2,-2 3,-5 6,-7 4,-3 8,-6 12,-9 3,-1 6,-3 9,-4 72,-55 140,-114 205,-176 12,-12 23,-24 36,-35l3 -2 2 -2c67,-66 133,-134 197,-202 17,-18 28,-39 35,-61l4 0 123 -195 221 -756c21,-7 33,-26 39,-57 5,-31 8,-65 8,-103l0 -57c0,-27 1,-51 3,-72 2,-21 9,-38 23,-51 0,-17 1,-47 3,-90 2,-43 3,-71 3,-85 0,-82 -3,-170 -10,-262z"/>
  <path class="fil0" d="M19616 6676c-4,-33 -5,-57 -5,-74l0 -247c-21,-14 -78,-27 -172,-41 -94,-14 -197,-27 -309,-39 -111,-12 -217,-22 -316,-31 -99,-8 -166,-14 -200,-18 -76,-3 -143,-8 -203,-15 -60,-7 -117,-13 -172,-18 -55,-5 -109,-9 -162,-13 -53,-3 -111,-5 -172,-5l-93 0c-27,7 -65,16 -113,28 -48,12 -95,25 -141,39 -46,14 -87,27 -121,39 -34,12 -53,20 -57,23l-51 52c-14,89 -25,163 -33,221 -9,58 -17,120 -26,185 -9,65 -15,118 -18,159 -28,236 -45,475 -51,715 -7,240 -10,480 -10,720l0 566 11 0c-17,190 -28,380 -33,571 -4,140 -6,281 -2,421 4,118 26,240 112,328 29,30 62,50 98,64 29,16 63,24 103,24l13 -1c59,4 121,-1 180,-4 142,-7 285,-15 428,-22 282,-15 563,-29 844,-44 57,-3 117,-3 175,-9 2,1 4,2 6,3 10,3 26,5 46,5 38,0 67,-9 87,-26 12,-10 23,-21 34,-33 29,-17 55,-40 77,-70 28,-11 52,-31 64,-60 5,-12 9,-24 13,-36l2 1c4,-13 7,-26 10,-40 2,-11 5,-22 6,-33 1,-7 2,-13 2,-20 0,-68 -3,-138 -18,-203l-5 0c-8,-18 -19,-35 -31,-51 -1,-14 -2,-28 -4,-41 -4,-21 -15,-39 -34,-54 -19,-15 -50,-28 -92,-39 -43,-10 -102,-15 -177,-15 -298,0 -591,-10 -879,-31 -14,-41 -21,-75 -23,-103 -2,-27 -2,-63 -2,-108l0 -51c0,-24 2,-38 5,-41 0,-34 1,-78 2,-131 2,-53 4,-104 8,-152 3,-58 7,-118 10,-180l848 -103c10,-3 24,-10 41,-21 17,-10 29,-21 36,-31l9 9c33,-30 60,-63 84,-99 5,-12 11,-23 16,-36 14,-33 27,-62 41,-87 8,-15 14,-25 20,-33 4,-10 7,-20 11,-30l0 -84c0,-38 -5,-79 -15,-123 -10,-45 -27,-87 -51,-126 -24,-39 -53,-72 -87,-98 -34,-26 -77,-39 -129,-39l-797 0c-4,0 -9,-19 -15,-56 -7,-38 -10,-70 -10,-98l0 -51c0,-31 -1,-66 -3,-105 -2,-39 -2,-79 -2,-118l0 -154c0,-26 1,-51 2,-77 2,-26 3,-49 3,-70l0 -36 26 -41 1076 0c6,2 11,4 17,6l0 0c68,23 138,-1 186,-48 40,-4 65,-26 76,-66 12,-45 18,-93 18,-144 0,-38 -2,-73 -5,-105z"/>
  <path class="fil0" d="M8116 11053c0,-2 -1,-3 -1,-5 5,-8 8,-20 8,-33 0,-21 -13,-42 -39,-64 -26,-22 -47,-33 -64,-33l-987 -123 -98 0c-28,3 -79,9 -154,15 -75,7 -155,14 -239,21 -84,7 -163,15 -236,23 -74,9 -126,15 -157,18 -7,7 -27,26 -62,57 -34,31 -53,58 -57,82l-129 792 0 121c0,74 -1,160 -3,260 -2,99 -3,201 -3,306l0 756c0,101 1,203 3,306 2,103 3,198 3,285l0 332c0,24 1,63 3,116 2,53 3,108 5,165 2,57 4,110 8,159 3,50 7,83 10,100 0,17 7,51 21,100l0 1c2,38 14,75 35,104 59,80 154,106 249,117 168,20 340,22 493,-61 58,-32 78,-83 72,-133l41 -179c7,-158 11,-291 13,-401 2,-110 4,-223 8,-339 3,-116 5,-214 5,-293l0 -149c0,-24 1,-57 3,-98 2,-41 4,-81 8,-121 3,-39 7,-88 10,-147l31 -41 761 0c51,0 97,-21 136,-64 39,-43 68,-81 85,-116 -17,-21 -26,-41 -26,-62 0,-3 1,-6 3,-8 2,-2 3,-4 3,-8 0,-7 3,-27 8,-59 5,-33 9,-54 13,-64 -21,-72 -44,-135 -69,-190 -26,-55 -57,-101 -93,-139 -36,-38 -81,-69 -134,-93 -53,-24 -119,-39 -198,-46l-51 0c-34,0 -70,1 -108,3 -38,2 -75,3 -113,3 -38,0 -75,-2 -113,-5 -38,-3 -72,-12 -103,-26l0 -31c0,-75 -5,-150 -15,-224 -10,-74 -15,-148 -15,-224 0,-7 1,-13 3,-18 2,-5 11,-11 28,-18l195 0c130,0 258,4 383,13 125,9 251,13 378,13 55,0 93,-8 113,-23 21,-15 35,-34 44,-57 5,-12 9,-25 12,-39 17,-18 31,-40 41,-64 61,-149 68,-312 36,-469z"/>
  <path class="fil0" d="M11026 11403c-3,-33 -5,-57 -5,-75l0 -247c-21,-14 -78,-27 -172,-41 -94,-14 -197,-27 -308,-39 -111,-12 -217,-22 -316,-31 -99,-9 -166,-15 -201,-18 -75,-3 -143,-9 -203,-15 -60,-7 -117,-13 -172,-18 -55,-5 -109,-9 -162,-13 -53,-3 -111,-5 -172,-5l-93 0c-27,7 -65,16 -113,28 -48,12 -95,25 -141,39 -46,14 -87,27 -121,39 -34,12 -53,20 -57,23l-51 51c-14,89 -25,163 -33,221 -9,58 -17,120 -26,185 -9,65 -15,118 -18,159 -27,237 -45,475 -51,715 -7,240 -10,480 -10,720l0 566 10 0c8,103 12,206 14,309l-13 334 9 7c-5,113 -11,226 9,333 2,30 4,61 8,92 7,62 20,118 39,167 19,50 45,90 80,121 34,31 79,46 134,46l802 -51 6 -6c20,-2 41,-5 61,-9 3,1 5,3 8,5 12,7 20,10 23,10l67 0c11,0 22,0 32,-1 220,23 448,30 663,-4 127,-20 240,-94 281,-220 11,-35 16,-72 17,-110 2,-2 4,-5 6,-7 -11,-65 -13,-132 -17,-198l-15 0 0 -26c0,-24 -2,-46 -5,-67 -3,-21 -15,-39 -33,-54 -15,-12 -38,-23 -68,-32 -32,-22 -72,-32 -117,-19 -26,-2 -54,-3 -86,-3 -298,0 -591,-10 -879,-31 -14,-41 -21,-75 -23,-103 -2,-27 -3,-63 -3,-108l0 -51c0,-24 2,-38 5,-41 0,-34 1,-78 3,-131 2,-53 4,-104 8,-152 3,-58 7,-118 10,-180l848 -103c10,-3 24,-10 41,-21 17,-10 29,-21 36,-31l2 2c4,-4 8,-8 13,-11 28,-18 51,-41 71,-67 8,-16 15,-33 23,-51 14,-33 27,-62 41,-87 4,-7 7,-13 10,-18 10,-36 16,-73 21,-109l0 -20c0,-38 -5,-79 -15,-123 -10,-44 -27,-87 -51,-126 -24,-39 -53,-72 -87,-98 -34,-26 -77,-39 -129,-39l-797 0c-3,0 -9,-19 -15,-57 -7,-38 -10,-70 -10,-98l0 -51c0,-31 -1,-66 -3,-105 -2,-39 -3,-79 -3,-118l0 -154c0,-26 1,-51 3,-77 2,-26 3,-49 3,-69l0 -36 26 -41 1188 0c-1,-2 -2,-3 -3,-5 22,-3 43,-10 63,-22 7,-4 14,-9 21,-15 45,-1 74,-23 86,-67 12,-44 18,-93 18,-144 0,-38 -2,-73 -5,-105z"/>
  <path class="fil0" d="M12749 13647l360 -951 334 1018 -694 -67zm643 -2569c-57,-64 -117,-126 -171,-191 -22,0 -46,-1 -71,-2 -27,-2 -55,-3 -82,-3 -69,0 -131,4 -188,13 -17,3 -32,6 -46,11 -24,27 -51,52 -77,78l-1262 3557c5,6 8,13 10,22 2,13 4,27 7,40 1,8 1,16 0,23 13,99 54,205 122,279 9,3 19,6 28,8 3,1 6,2 10,3l399 27c32,-12 64,-23 96,-33 34,-10 67,-17 101,-22l241 -510c58,-3 116,-7 175,-10 48,-3 97,-7 147,-10 50,-3 92,-7 126,-10l26 5c14,-3 53,-7 118,-10 65,-3 137,-5 216,-5 51,0 102,2 152,5 50,3 94,9 134,15 39,7 71,18 95,33 15,10 26,21 31,33 36,44 54,111 71,162 27,78 59,155 92,232 28,29 61,53 99,72 44,22 104,37 180,44l51 0c51,0 104,-7 157,-21 53,-14 102,-35 147,-64 44,-29 81,-64 110,-105 29,-41 45,-91 49,-149l0 -62 -1290 -3454z"/>
  <path class="fil0" d="M17228 10853l-1 -2c-5,-10 -16,-15 -33,-15 -5,0 -10,0 -15,-1 -17,-4 -35,-6 -54,-6 -11,0 -22,1 -32,3 -222,-9 -441,-19 -657,-29 -248,-12 -496,-18 -743,-18l-252 0c-21,3 -61,9 -121,18 -60,9 -124,18 -193,28 -69,10 -133,21 -193,31 -60,10 -102,19 -126,26 -45,17 -74,51 -88,100 -14,50 -21,104 -21,162 0,48 3,94 8,139 5,45 8,82 8,113 3,10 4,26 3,46 -2,21 4,34 18,41l751 154c3,0 6,15 8,46 2,31 3,55 3,72 10,195 15,391 15,586 0,189 -3,377 -8,565 -5,189 -8,377 -8,566 0,189 5,377 15,566 3,31 5,62 5,93l0 201c0,75 2,148 5,218 3,70 15,135 36,195 21,60 51,116 93,167 35,43 82,83 141,119 73,54 171,69 261,61 64,-6 131,-12 180,-58 6,-6 12,-12 17,-18 28,-11 51,-31 68,-56 8,-10 15,-22 20,-36 1,-2 2,-5 3,-7 7,-18 10,-38 9,-59 0,-7 0,-13 0,-20 0,-3 0,-5 0,-8l0 -1c4,-2 7,-3 11,-5l62 -3157 689 0c24,0 51,-15 82,-46 31,-31 60,-67 87,-108 27,-41 50,-82 67,-123 17,-41 26,-72 26,-93 0,-10 -1,-19 -3,-28 37,-147 -5,-353 -143,-423z"/>
  <path class="fil0" d="M8326 16021c-3,-33 -5,-57 -5,-75l0 -247c-21,-14 -78,-27 -172,-41 -94,-14 -197,-27 -308,-39 -111,-12 -217,-22 -316,-31 -99,-8 -166,-15 -200,-18 -75,-3 -143,-9 -203,-15 -60,-7 -117,-13 -172,-18 -55,-5 -109,-9 -162,-13 -53,-3 -111,-5 -172,-5l-93 0c-27,7 -65,16 -113,28 -48,12 -95,25 -141,39 -46,14 -87,27 -121,38 -34,12 -53,20 -57,23l-51 51c-14,89 -25,163 -33,221 -9,58 -17,120 -26,185 -9,65 -15,118 -18,159 -27,236 -45,475 -51,715 -7,240 -10,480 -10,720l0 566 6 0c-5,247 -14,495 -14,742 0,141 12,280 57,408 7,32 15,63 26,91 19,50 45,90 80,121 7,7 15,12 23,17 39,41 104,47 156,26l747 -48c32,3 64,0 97,-3 4,2 7,3 9,3l67 0c31,0 61,-3 90,-8 11,-2 21,-4 31,-7 98,4 196,16 294,19 91,3 187,-3 276,-27 5,1 12,2 18,2 7,-3 15,-5 22,-8 60,-21 107,-40 141,-83 5,-7 9,-14 14,-21 6,-10 11,-21 16,-33 15,-38 26,-78 34,-117l0 0 0 0c23,-120 18,-244 21,-366 -6,-14 -15,-26 -29,-37 -19,-15 -50,-28 -93,-39 -43,-10 -102,-15 -177,-15 -298,0 -591,-10 -879,-31 -14,-41 -21,-75 -23,-103 -2,-27 -3,-63 -3,-108l0 -51c0,-24 2,-38 5,-41 0,-34 1,-78 3,-131 2,-53 4,-104 8,-152 3,-58 7,-118 10,-180l848 -103c10,-3 24,-10 41,-21 17,-10 29,-21 36,-31l7 7c21,-13 41,-28 60,-44 15,-28 28,-57 42,-88 14,-33 27,-62 41,-88 14,-26 24,-40 31,-44l0 -103c0,-38 -5,-79 -15,-123 -10,-44 -27,-87 -51,-126 -24,-39 -53,-72 -87,-98 -34,-26 -77,-39 -129,-39l-797 0c-3,0 -9,-19 -15,-57 -7,-38 -10,-70 -10,-98l0 -51c0,-31 -1,-66 -3,-105 -2,-39 -3,-79 -3,-118l0 -154c0,-26 1,-51 3,-77 2,-26 3,-49 3,-69l0 -36 26 -41 1136 0c13,3 26,5 39,6 9,0 19,0 28,0 33,0 64,-12 90,-32 12,-10 22,-20 31,-32 15,-11 25,-28 31,-50 12,-45 18,-93 18,-144 0,-38 -2,-73 -5,-105z"/>
  <path class="fil0" d="M10984 17790c-21,132 -57,251 -108,357 -51,106 -122,199 -211,278 -89,79 -201,144 -334,195 -38,14 -69,27 -93,38 -24,12 -46,22 -67,31 -21,9 -43,15 -67,21 -21,4 -47,7 -77,8 -36,-10 -75,-16 -112,-19 1,-11 2,-26 4,-45 3,-33 7,-66 10,-100 3,-34 6,-65 8,-93 2,-27 3,-43 3,-46 -3,-72 -6,-137 -8,-195 -2,-58 -3,-122 -5,-190 -2,-68 -3,-134 -5,-198 -2,-63 -3,-119 -5,-167 -2,-48 -3,-79 -3,-93 0,-3 1,-17 3,-41 2,-24 4,-50 8,-77 3,-27 7,-53 10,-77 3,-24 5,-39 5,-46 0,-62 -4,-122 -13,-180 -9,-58 -13,-118 -13,-180l0 -31c0,-3 4,-12 13,-26 9,-14 13,-22 13,-26 0,-17 -3,-42 -10,-75 -7,-32 -12,-51 -15,-54l0 -31c0,-17 -9,-27 -26,-31l26 -26 0 -298 684 175c48,17 97,57 147,118 50,62 94,134 134,216 39,82 72,166 98,252 26,86 39,158 39,216 0,161 -10,308 -31,440zm997 -578c-7,-93 -29,-175 -67,-247l-411 -828c-14,-27 -38,-59 -72,-95 -34,-36 -73,-71 -116,-105 -43,-34 -87,-64 -134,-90 -46,-26 -87,-44 -121,-54l-853 -221c-17,3 -43,5 -77,5 -69,0 -142,-9 -221,-28 -79,-19 -153,-28 -221,-28 -38,0 -88,3 -152,10 -63,7 -125,21 -185,41 -60,21 -112,49 -157,85 -45,36 -67,82 -67,136 0,45 9,81 26,108 17,27 26,55 26,82 0,17 -3,33 -10,49 -7,15 -21,33 -41,54 3,3 9,11 15,23 7,12 10,21 10,28 0,3 -3,10 -10,21 -7,10 -12,17 -15,21l0 103c0,17 -1,51 -3,100 -2,50 -4,108 -8,175 -3,67 -7,138 -10,213 -3,75 -7,147 -10,213 -3,67 -6,125 -8,175 -2,50 -3,83 -3,100 -7,298 -13,611 -18,938 -5,286 -7,563 -8,831 -5,6 -9,13 -14,20 2,16 4,33 7,49 8,58 12,116 18,174 3,2 5,5 8,7 5,26 13,52 22,77 1,43 7,84 17,122 24,49 60,88 112,119 4,-1 7,-2 10,-4 2,1 3,2 5,3 49,23 99,43 150,60 0,3 -1,7 -1,10 12,1 23,3 34,5 2,-1 4,-2 6,-3 332,105 687,96 1030,22 199,-43 401,-103 578,-204 164,-93 301,-223 413,-373 40,-54 76,-112 108,-173l5 0 123 -195 221 -756c21,-7 33,-26 39,-57 5,-31 8,-65 8,-103l0 -57c0,-27 1,-51 3,-72 2,-21 9,-38 23,-51 0,-17 1,-47 3,-90 2,-43 3,-71 3,-85 0,-82 -3,-170 -10,-262z"/>
 </g>
</svg>
